<?xml version="1.0" encoding="utf-8"?>
<!-- Generator: Adobe Illustrator 16.2.0, SVG Export Plug-In . SVG Version: 6.00 Build 0)  -->
<!DOCTYPE svg PUBLIC "-//W3C//DTD SVG 1.1//EN" "http://www.w3.org/Graphics/SVG/1.1/DTD/svg11.dtd">
<svg version="1.1" id="Layer_1" xmlns="http://www.w3.org/2000/svg" xmlns:xlink="http://www.w3.org/1999/xlink" x="0px" y="0px"
	 width="1280px" height="800px" viewBox="0 0 1280 800" enable-background="new 0 0 1280 800" xml:space="preserve">
<path stroke="#231F20" stroke-miterlimit="10" d="M640.805,302.963l-0.807-0.084l-76.69,8.04v140.568L640,497.12l76.692-45.633
	V310.919L640.805,302.963z M706.66,445.783L640,485.446l-66.66-39.663v-57.615l66.374,39.506l0.111,7.159l-45.534-27.1l-0.067,6.951
	l45.715,27.475l0.113,7.35l-45.7-27.186l-0.066,6.95L640,456.748l46.152-27.615v-6.982l-0.058,0.034v-2.386v-2.864v-17.456
	l20.565-12.281V445.783z M706.606,379.724l-18.236,10.744l-8.419,4.96l-40.149-23.884l-0.066,6.951l34.316,20.407l-0.304,0.18
	l-0.739,0.435l-4.876,2.873l-28.332-16.854l-0.066,6.951l22.362,13.298l-5.276,3.529l-0.128,0.077l-16.892-9.951l-0.066,6.95
	l11.084,6.527l-11.291,6.779l-66.044-39.259l66.139-39.755v0.007L706.606,379.724z M706.66,372.732l-67.02-39.508v-0.01
	l-0.008,0.005l-0.008-0.005v0.01l-66.284,39.462v-52.731l66.661-6.989l66.659,6.989V372.732z"/>
</svg>
