<?xml version="1.0" encoding="utf-8"?>
<!-- Generator: Adobe Illustrator 16.2.0, SVG Export Plug-In . SVG Version: 6.00 Build 0)  -->
<!DOCTYPE svg PUBLIC "-//W3C//DTD SVG 1.1//EN" "http://www.w3.org/Graphics/SVG/1.1/DTD/svg11.dtd">
<svg version="1.1" xmlns="http://www.w3.org/2000/svg" xmlns:xlink="http://www.w3.org/1999/xlink" x="0px" y="0px"
	 width="432.624px" height="324.498px" viewBox="81.327 258.754 432.624 324.498"
	 enable-background="new 81.327 258.754 432.624 324.498" xml:space="preserve">
<g id="Laag_1">
	<g>
		<path fill="#63D1BB" stroke="#FFFFFF" stroke-width="25" stroke-miterlimit="10" d="M509.533,328.747
			c0,0-4.186-31.857-17.207-45.809c-16.51-18.37-34.88-18.486-43.367-19.532c-60.574-4.651-151.378-4.651-151.378-4.651h-0.232
			c0,0-90.804,0-151.378,4.651c-8.487,1.046-26.857,1.163-43.367,19.532c-12.905,14.068-17.207,45.809-17.207,45.809
			s-4.069,37.321-4.069,74.642v34.996c0,37.321,4.302,74.643,4.302,74.643s4.186,31.857,17.207,45.809
			c16.51,18.37,38.02,17.789,47.669,19.766c34.647,3.487,147.076,4.65,147.076,4.65s90.92-0.116,151.494-4.767
			c8.487-1.047,26.857-1.163,43.367-19.533c12.905-13.951,17.207-45.809,17.207-45.809s4.302-37.321,4.302-74.643v-34.996
			C513.835,366.068,509.533,328.747,509.533,328.747z"/>
	</g>
</g>
<g id="Layer_2">
	<polygon fill="#FFFFFF" points="243.518,339.792 243.518,502.099 378.735,420.945 	"/>
</g>
</svg>
